<?xml version="1.0" encoding="utf-8"?>
<svg version="1.1" xmlns="http://www.w3.org/2000/svg" xmlns:xlink="http://www.w3.org/1999/xlink" height="30" width="30">
  <defs>
    <path id="path-1" opacity="1" fill-rule="evenodd" d="M0,15 C0,6.71572835 6.71572835,0 15,0 C23.28427165,0 30,6.71572835 30,15 C30,23.28427165 23.28427165,30 15,30 C6.71572835,30 0,23.28427165 0,15Z"/>
    <mask id="mask-2" maskUnits="userSpaceOnUse" maskContentUnits="userSpaceOnUse" x="0" y="0">
      <rect opacity="1" x="0" y="0" width="30" height="30" fill="black"/>
      <use xlink:href="#path-1" fill="white"/>
    </mask>
    <path id="path-3" opacity="1" fill-rule="evenodd" d="M14.550751649999999,12.1921879 L14.582228199999996,12.71122175 L14.057618699999999,12.64766655 C12.148040149999998,12.404038450000002 10.47978195,11.5778213 9.0633363,10.190200200000001 L8.37085175,9.501685950000002 L8.19248455,10.010127250000002 C7.814765700000001,11.1435277 8.05608605,12.340483250000002 8.8430003,13.14551535 C9.2626879,13.590401500000002 9.1682582,13.653956650000001 8.4442971,13.389143500000001 C8.19248455,13.30440325 7.972148550000001,13.240848100000001 7.951164150000001,13.272625700000003 C7.877718850000001,13.34677335 8.1295314,14.310693350000001 8.328883,14.69202435 C8.60167995,15.2216507 9.157766,15.74068455 9.76631305,16.04786785 L10.28043035,16.291496 L9.6718833,16.3020885 C9.0843207,16.3020885 9.0633363,16.31268105 9.12628945,16.5351241 C9.33613325,17.2236384 10.16501625,17.95452275 11.088328949999998,18.2722986 L11.738844749999998,18.49474165 L11.1722665,18.83370255 C10.3328913,19.3209588 9.34662545,19.5963645 8.3603596,19.61754955 C7.888211050000001,19.6281421 7.500000000000001,19.6705122 7.500000000000001,19.7022898 C7.500000000000001,19.80821505 8.78004715,20.4013966 9.52499265,20.6344322 C11.759829099999997,21.3229465 14.414353149999997,21.026355699999996 16.407869249999997,19.85058515 C17.824314899999997,19.0137755 19.240760549999994,17.3507487 19.901768499999996,15.74068455 C20.258502949999993,14.882689850000002 20.61523744999999,13.314995800000002 20.61523744999999,12.56292635 C20.61523744999999,12.075670100000002 20.646713999999996,12.012114950000003 21.234276649999995,11.429525900000002 C21.580518899999994,11.090565050000002 21.905776799999995,10.719826600000001 21.968729949999993,10.613901300000002 C22.073651849999994,10.412643300000001 22.063159649999992,10.412643300000001 21.528057949999994,10.592716250000002 C20.636221799999998,10.910492100000003 20.510315549999998,10.868121950000003 20.950987499999993,10.391458250000001 C21.276245399999993,10.052497350000001 21.66445639999999,9.438130800000001 21.66445639999999,9.258057800000001 C21.66445639999999,9.226280250000002 21.507073549999994,9.279242850000001 21.328706349999994,9.374575600000002 C21.13984689999999,9.480500900000001 20.72015929999999,9.639388800000003 20.405393649999993,9.734721550000001 L19.838815349999994,9.914794500000001 L19.324698049999995,9.565241100000001 C19.041408949999997,9.374575600000002 18.642705699999997,9.162725050000002 18.432861899999995,9.099169900000001 C17.897760249999997,8.950874500000001 17.079369399999997,8.972059550000003 16.596728699999996,9.141540000000003 C15.285204949999997,9.618203750000001 14.456321949999998,10.846936900000001 14.550751649999999,12.1921879Z"/>
  </defs>
  <g opacity="1">
    <g opacity="1">
      <g opacity="1">
        <use xlink:href="#path-1" fill-opacity="0" stroke="rgb(255,255,255)" stroke-opacity="1" stroke-width="2" stroke-linecap="butt" stroke-linejoin="miter" mask="url(#mask-2)"/>
      </g>
      <g opacity="1">
        <use xlink:href="#path-3" fill="rgb(255,255,255)" fill-opacity="1"/>
      </g>
    </g>
  </g>
</svg>